<svg xmlns="http://www.w3.org/2000/svg" xmlns:xlink="http://www.w3.org/1999/xlink" version="1.1" x="0px" y="0px" viewBox="0 0 512 640" style="enable-background:new 0 0 512 512;" xml:space="preserve"><g><g><g><g><path d="M386.916,455.286H123.804c-1.657,0-3-1.343-3-3s1.343-3,3-3h260.112v-19.395c-20.835-2.315-40.077-12.005-54.439-27.475      c-15.075-16.237-23.377-37.384-23.377-59.544c0-30.382,15.392-58.151,41.173-74.281c1.403-0.88,3.256-0.453,4.134,0.952      c0.879,1.404,0.453,3.255-0.952,4.134c-24.017,15.027-38.354,40.895-38.354,69.195c0,42.251,32.968,77.963,75.054,81.301      c1.56,0.123,2.763,1.426,2.763,2.99v25.122C389.916,453.943,388.573,455.286,386.916,455.286z M81.656,447.435      c-1.657,0-3-1.343-3-3V72.764c0-1.657,1.343-3,3-3h305.26c1.657,0,3,1.343,3,3v152.047c0,1.657-1.343,3-3,3h-13.6v9.221h5.771      c1.657,0,3,1.343,3,3v2.101c0,1.657-1.343,3-3,3c-1.344,0-2.481-0.883-2.863-2.101h-5.908c-1.657,0-3-1.343-3-3v-15.221      c0-1.657,1.343-3,3-3h13.6V75.764H84.656v368.671C84.656,446.092,83.313,447.435,81.656,447.435z"/></g><g><path d="M159.01,164.455h-43.306c-1.657,0-3-1.343-3-3v-43.307c0-1.657,1.343-3,3-3h43.306c1.657,0,3,1.343,3,3v43.307      C162.01,163.112,160.667,164.455,159.01,164.455z M118.705,158.455h37.306v-37.307h-37.306V158.455z"/></g><g><path d="M159.01,246.454h-43.306c-1.657,0-3-1.343-3-3v-43.307c0-1.657,1.343-3,3-3h43.306c1.657,0,3,1.343,3,3v43.307      C162.01,245.111,160.667,246.454,159.01,246.454z M118.705,240.454h37.306v-37.307h-37.306V240.454z"/></g><g><path d="M159.01,328.422h-43.306c-1.657,0-3-1.343-3-3v-43.307c0-1.657,1.343-3,3-3h43.306c1.657,0,3,1.343,3,3v43.307      C162.01,327.079,160.667,328.422,159.01,328.422z M118.705,322.422h37.306v-37.307h-37.306V322.422z"/></g><g><path d="M159.01,410.42h-43.306c-1.657,0-3-1.343-3-3v-43.307c0-1.657,1.343-3,3-3h43.306c1.657,0,3,1.343,3,3v43.307      C162.01,409.077,160.667,410.42,159.01,410.42z M118.705,404.42h37.306v-37.307h-37.306V404.42z"/></g><g><path d="M292.168,135.146h-113.69c-1.657,0-3-1.343-3-3s1.343-3,3-3h113.69c1.657,0,3,1.343,3,3      S293.825,135.146,292.168,135.146z"/></g><g><path d="M249.903,150.488h-71.425c-1.657,0-3-1.343-3-3s1.343-3,3-3h71.425c1.657,0,3,1.343,3,3S251.56,150.488,249.903,150.488      z"/></g><g><path d="M292.168,217.114h-113.69c-1.657,0-3-1.343-3-3s1.343-3,3-3h113.69c1.657,0,3,1.343,3,3      S293.825,217.114,292.168,217.114z"/></g><g><path d="M249.903,232.456h-71.425c-1.657,0-3-1.343-3-3s1.343-3,3-3h71.425c1.657,0,3,1.343,3,3S251.56,232.456,249.903,232.456      z"/></g><g><path d="M292.168,299.112h-113.69c-1.657,0-3-1.343-3-3s1.343-3,3-3h113.69c1.657,0,3,1.343,3,3      S293.825,299.112,292.168,299.112z"/></g><g><path d="M249.903,314.455h-71.425c-1.657,0-3-1.343-3-3s1.343-3,3-3h71.425c1.657,0,3,1.343,3,3S251.56,314.455,249.903,314.455      z"/></g><g><path d="M292.168,381.081h-113.69c-1.657,0-3-1.343-3-3s1.343-3,3-3h113.69c1.657,0,3,1.343,3,3      S293.825,381.081,292.168,381.081z"/></g><g><path d="M249.903,396.423h-71.425c-1.657,0-3-1.343-3-3s1.343-3,3-3h71.425c1.657,0,3,1.343,3,3S251.56,396.423,249.903,396.423      z"/></g><g><path d="M81.656,408.525H33.767c-1.657,0-3-1.343-3-3v-59.907c0-1.657,1.343-3,3-3s3,1.343,3,3v56.907h41.889V72.764      c0-1.657,1.343-3,3-3h59.442c1.657,0,3,1.343,3,3s-1.343,3-3,3H84.656v329.762C84.656,407.183,83.313,408.525,81.656,408.525z       M33.767,298.618c-1.657,0-3-1.343-3-3V26.004c0-1.657,1.343-3,3-3h305.286c1.657,0,3,1.343,3,3v46.76c0,1.657-1.343,3-3,3      H191.098c-1.657,0-3-1.343-3-3s1.343-3,3-3h144.955v-40.76H36.767v266.614C36.767,297.275,35.424,298.618,33.767,298.618z"/></g><g><path d="M393.666,430.438c-48.284,0-87.566-39.281-87.566-87.565c0-17.957,5.398-35.216,15.61-49.91      c9.978-14.357,23.822-25.303,40.039-31.654c1.546-0.607,3.283,0.157,3.887,1.699c0.604,1.542-0.156,3.283-1.699,3.887      c-31.489,12.334-51.837,42.157-51.837,75.979c0,44.976,36.591,81.565,81.566,81.565s81.566-36.59,81.566-81.565      s-36.591-81.566-81.566-81.566c-1.657,0-3-1.343-3-3c0-1.657,1.343-3,3-3c48.284,0,87.566,39.282,87.566,87.566      S441.95,430.438,393.666,430.438z"/></g><g><path d="M408.217,262.561c-0.172,0-0.344-0.015-0.516-0.045c-9.221-1.606-18.912-1.601-28.098,0      c-0.873,0.154-1.768-0.089-2.446-0.659c-0.678-0.569-1.069-1.41-1.069-2.296v-19.529c0-1.657,1.343-3,3-3h29.129      c1.657,0,3,1.343,3,3v19.529c0,0.886-0.392,1.727-1.069,2.296C409.603,262.314,408.918,262.561,408.217,262.561z       M382.088,243.031v13.036c7.627-1.007,15.482-1.011,23.129,0v-13.035H382.088z"/></g><g><path d="M431.809,345.873h-38.143c-0.682,0-1.343-0.232-1.875-0.658l-29.918-23.961c-1.294-1.036-1.502-2.924-0.467-4.217      c1.036-1.294,2.926-1.503,4.217-0.467l29.097,23.303h37.089c1.657,0,3,1.343,3,3S433.466,345.873,431.809,345.873z"/></g><g><path d="M416.988,243.031h-46.672c-1.657,0-3-1.343-3-3v-15.221c0-1.657,1.343-3,3-3h46.672c1.657,0,3,1.343,3,3v15.221      C419.988,241.688,418.646,243.031,416.988,243.031z M373.316,237.031h40.672v-9.221h-40.672V237.031z"/></g><g><path d="M393.666,283.771c-4.214,0-7.643-3.43-7.643-7.646s3.429-7.646,7.643-7.646c4.218,0,7.648,3.431,7.648,7.646      S397.884,283.771,393.666,283.771z M393.666,274.479c-0.905,0-1.643,0.738-1.643,1.646c0,0.907,0.737,1.646,1.643,1.646      c0.909,0,1.648-0.738,1.648-1.646C395.314,275.217,394.575,274.479,393.666,274.479z"/></g><g><path d="M460.416,350.518c-4.215,0-7.645-3.43-7.645-7.645c0-4.216,3.43-7.646,7.645-7.646c4.199,0,7.615,3.43,7.615,7.646      C468.031,347.088,464.615,350.518,460.416,350.518z M460.416,341.228c-0.907,0-1.645,0.738-1.645,1.646s0.737,1.645,1.645,1.645      c0.891,0,1.615-0.737,1.615-1.645S461.307,341.228,460.416,341.228z"/></g><g><path d="M393.666,417.236c-4.214,0-7.643-3.416-7.643-7.615c0-4.216,3.429-7.646,7.643-7.646c4.218,0,7.648,3.43,7.648,7.646      C401.314,413.82,397.884,417.236,393.666,417.236z M393.666,407.976c-0.905,0-1.643,0.738-1.643,1.646      c0,0.891,0.737,1.615,1.643,1.615c0.909,0,1.648-0.725,1.648-1.615C395.314,408.714,394.575,407.976,393.666,407.976z"/></g><g><path d="M326.92,350.518c-4.216,0-7.646-3.43-7.646-7.645c0-4.216,3.431-7.646,7.646-7.646c4.215,0,7.645,3.43,7.645,7.646      C334.564,347.088,331.135,350.518,326.92,350.518z M326.92,341.228c-0.908,0-1.646,0.738-1.646,1.646s0.738,1.645,1.646,1.645      c0.907,0,1.645-0.737,1.645-1.645S327.827,341.228,326.92,341.228z"/></g><g><path d="M277.07,475.243H51.063c-1.657,0-3-1.343-3-3s1.343-3,3-3H277.07c1.657,0,3,1.343,3,3S278.728,475.243,277.07,475.243z"/></g><g><path d="M339.816,488.996H183.4c-1.657,0-3-1.343-3-3s1.343-3,3-3h156.417c1.657,0,3,1.343,3,3S341.474,488.996,339.816,488.996      z"/></g><g><path d="M375.393,488.996H355.83c-1.657,0-3-1.343-3-3s1.343-3,3-3h19.563c1.657,0,3,1.343,3,3S377.05,488.996,375.393,488.996z      "/></g><g><path d="M116.253,488.599H42.169c-1.657,0-3-1.343-3-3s1.343-3,3-3h74.084c1.657,0,3,1.343,3,3S117.91,488.599,116.253,488.599z      "/></g><g><path d="M139.604,231.692c-0.95,0-1.88-0.451-2.46-1.281l-7.763-11.094c-0.95-1.357-0.62-3.228,0.738-4.178      c1.356-0.95,3.227-0.621,4.178,0.738l6.187,8.841l25.31-14.609c1.435-0.829,3.27-0.336,4.098,1.099      c0.829,1.435,0.336,3.27-1.099,4.098l-27.691,15.983C140.631,231.562,140.115,231.692,139.604,231.692z"/></g><g><path d="M139.604,391.35c-0.95,0-1.88-0.451-2.46-1.28l-7.763-11.094c-0.95-1.357-0.62-3.228,0.738-4.178      c1.356-0.949,3.227-0.62,4.178,0.738l6.187,8.841l25.31-14.61c1.437-0.828,3.27-0.335,4.098,1.099      c0.829,1.436,0.336,3.27-1.098,4.099l-27.691,15.984C140.631,391.22,140.115,391.35,139.604,391.35z"/></g><g><path d="M55.25,408.525c-1.657,0-3-1.343-3-3V188.228c0-1.657,1.343-3,3-3s3,1.343,3,3v217.298      C58.25,407.183,56.907,408.525,55.25,408.525z"/></g><g><path d="M404.334,198.471c-1.657,0-3-1.343-3-3V84.072c0-1.657,1.343-3,3-3s3,1.343,3,3v111.398      C407.334,197.127,405.991,198.471,404.334,198.471z"/></g></g></g></g><text x="0" y="527" fill="#000000" font-size="5px" font-weight="bold" font-family="'Helvetica Neue', Helvetica, Arial-Unicode, Arial, Sans-serif">Created by Flatart</text><text x="0" y="532" fill="#000000" font-size="5px" font-weight="bold" font-family="'Helvetica Neue', Helvetica, Arial-Unicode, Arial, Sans-serif">from the Noun Project</text></svg>